<?xml version="1.0" encoding="UTF-8"?>
<svg version="1.1" xmlns="http://www.w3.org/2000/svg" width="512" height="512">
<path d="M0 0 C6.79193107 6.43135299 10.93936789 14.61905789 15 22.9375 C15.40541016 23.75347656 15.81082031 24.56945313 16.22851562 25.41015625 C18.57737187 30.16371079 20.87590541 34.93964053 23.15063477 39.72900391 C30.36071478 54.89995031 37.82782991 69.9317887 45.375 84.9375 C58.4598028 110.95391766 58.4598028 110.95391766 64.65234375 123.8671875 C65.07761856 124.74859406 65.50289337 125.63000061 65.9410553 126.53811646 C66.51345192 127.74103836 66.51345192 127.74103836 67.09741211 128.96826172 C67.59754066 130.01565018 67.59754066 130.01565018 68.10777283 131.084198 C68.8125 132.8125 68.8125 132.8125 68.8125 134.8125 C69.60396644 134.86493709 70.39543287 134.91737417 71.21088314 134.97140026 C79.02307315 135.52535908 86.73147999 136.39254117 94.48071289 137.51489258 C95.67277847 137.6841777 96.86484406 137.85346283 98.09303284 138.02787781 C101.32073921 138.48747513 104.54785936 138.950913 107.77464986 139.41689134 C109.79938123 139.70908408 111.82426933 140.00016594 113.84921074 140.29089928 C120.93766967 141.30881244 128.02539967 142.33165167 135.11254883 143.35864258 C141.68173405 144.31042496 148.25251032 145.25060973 154.82410628 146.1855877 C160.50124421 146.99388894 166.17709813 147.81082531 171.85206598 148.63422316 C175.22624989 149.12362267 178.60083543 149.60959549 181.97679329 150.08661842 C185.74403187 150.62119566 189.50896783 151.16988344 193.27368164 151.72192383 C194.36960632 151.87428497 195.46553101 152.02664612 196.59466553 152.18362427 C209.09049826 154.05018131 219.42891253 156.94246085 227.8125 166.8125 C234.40502231 175.77833034 235.2012541 185.08471836 233.8125 195.8125 C231.3059933 208.21397433 219.75214861 217.04161854 211.17358398 225.58178711 C209.74410283 227.00587492 208.32009489 228.43528044 206.89648438 229.86523438 C205.97029297 230.79013672 205.04410156 231.71503906 204.08984375 232.66796875 C203.26734131 233.48934326 202.44483887 234.31071777 201.59741211 235.15698242 C199.4272294 237.22633259 197.23309463 239.19803247 194.96508789 241.15551758 C190.82295037 244.75318673 186.9473534 248.56635781 183.09375 252.46875 C182.39157349 253.17471313 181.68939697 253.88067627 180.96594238 254.60803223 C178.74565397 256.84041358 176.52866045 259.07602111 174.3125 261.3125 C171.38840521 264.26340378 168.46086943 267.21083203 165.53125 270.15625 C164.548078 271.15186951 164.548078 271.15186951 163.54504395 272.16760254 C159.7232317 276.00931879 155.78827809 279.65146805 151.68643188 283.19238281 C147.44887593 286.85598302 143.3658836 290.68213706 139.32739258 294.56298828 C138.27084345 295.56737224 137.20289811 296.55989523 136.12426758 297.54052734 C134.54129779 298.98298553 133.00170007 300.46181063 131.46484375 301.953125 C130.54695068 302.81454102 129.62905762 303.67595703 128.68334961 304.56347656 C124.49653134 311.8345424 128.42847192 323.04592405 129.85375977 330.99072266 C130.05873077 332.15495758 130.26370178 333.3191925 130.47488403 334.51870728 C130.91720291 337.02940333 131.36141529 339.53976641 131.80734444 342.04982376 C132.51455498 346.03659275 133.2146951 350.02453752 133.91209412 354.01303101 C135.89503807 365.34746716 137.88440418 376.68073381 139.89526367 388.01025391 C141.00877813 394.28442201 142.11175982 400.56035042 143.20347828 406.83834875 C143.77916359 410.14618998 144.36160889 413.45248055 144.95395088 416.75740433 C151.96355493 455.89655945 151.96355493 455.89655945 144.8125 466.8125 C144.38839844 467.50601562 143.96429688 468.19953125 143.52734375 468.9140625 C138.75246156 476.0165335 132.07599813 480.61953306 123.8125 482.8125 C121.03565571 483.12854641 118.2929677 483.18249916 115.5 483.1875 C114.79166016 483.21199219 114.08332031 483.23648437 113.35351562 483.26171875 C109.32102756 483.28365432 106.22336523 482.74061543 102.55078125 481.04150391 C101.76499191 480.6786026 100.97920258 480.31570129 100.16960144 479.94180298 C96.62290507 478.24255716 93.10965221 476.48785552 89.61328125 474.6875 C88.86482437 474.30420029 88.11636749 473.92090057 87.3452301 473.52598572 C84.93696247 472.29109928 82.53083561 471.0521171 80.125 469.8125 C79.29526672 469.38599152 78.46553345 468.95948303 77.61065674 468.52005005 C67.40688805 463.27315948 57.26114379 457.94673561 47.22460938 452.38525391 C38.61560385 447.64308845 29.8715629 443.16889379 21.125 438.6875 C20.36409058 438.29761902 19.60318115 437.90773804 18.81921387 437.50604248 C15.84323369 435.98142396 12.86720453 434.45690117 9.89102173 432.93267822 C4.05757405 429.94310871 -1.76111053 426.92638399 -7.5625 423.875 C-8.29170654 423.49263184 -9.02091309 423.11026367 -9.7722168 422.71630859 C-12.55992347 421.24508509 -15.24473122 419.77347872 -17.8515625 417.99609375 C-20.08628425 416.63436319 -20.08628425 416.63436319 -22.44140625 416.85546875 C-26.51395809 418.27477914 -30.28761844 420.16580373 -34.125 422.125 C-35.01050537 422.57230469 -35.89601074 423.01960938 -36.80834961 423.48046875 C-43.92622223 427.10415849 -50.92727821 430.92426247 -57.91772461 434.78637695 C-66.75194794 439.63732906 -75.71428936 444.22602314 -84.6875 448.8125 C-94.54041663 453.85015311 -104.36655687 458.91393576 -114.0625 464.25 C-115.34133057 464.95177368 -115.34133057 464.95177368 -116.64599609 465.66772461 C-120.08000445 467.55334238 -123.51317117 469.44044827 -126.94335938 471.33300781 C-154.63314537 486.53843701 -154.63314537 486.53843701 -170.81640625 482.08984375 C-180.08828979 478.8199123 -186.913381 472.6754987 -191.1875 463.8125 C-197.21047156 448.1729924 -191.57945659 429.23891829 -188.74505997 413.40653706 C-188.11753952 409.88211889 -187.50729258 406.35471077 -186.89526367 402.82757568 C-185.73764004 396.17037515 -184.56626714 389.5156801 -183.38908291 382.86191344 C-181.27693451 370.92033256 -179.19025591 358.97428041 -177.10622501 347.02776504 C-176.37558613 342.84257149 -175.63940235 338.65840225 -174.89842224 334.47502756 C-174.33163261 331.27066193 -173.76988267 328.06541093 -173.20703125 324.86035156 C-172.89845688 323.13203598 -172.89845688 323.13203598 -172.58364868 321.36880493 C-172.39853729 320.30948761 -172.2134259 319.25017029 -172.02270508 318.15875244 C-171.86046951 317.24152531 -171.69823395 316.32429817 -171.53108215 315.37927628 C-170.74952813 310.46244936 -170.74952813 310.46244936 -172.38647461 306.00552368 C-172.94858643 305.45149872 -173.51069824 304.89747375 -174.08984375 304.32666016 C-174.72470703 303.68894684 -175.35957031 303.05123352 -176.01367188 302.39419556 C-176.71041016 301.72012665 -177.40714844 301.04605774 -178.125 300.3515625 C-178.83849609 299.64276947 -179.55199219 298.93397644 -180.28710938 298.20370483 C-182.57579876 295.93637214 -184.88149944 293.6872097 -187.1875 291.4375 C-188.71072391 289.93078713 -190.23287213 288.42298595 -191.75390625 286.9140625 C-199.80582251 278.92536049 -199.80582251 278.92536049 -208.20507812 271.30810547 C-212.29395573 267.76881556 -216.10779391 264.00279667 -219.90625 260.15625 C-220.60842651 259.45028687 -221.31060303 258.74432373 -222.03405762 258.01696777 C-225.00133766 255.03352625 -227.96255363 252.0440929 -230.92431641 249.05517578 C-233.10368465 246.85759421 -235.28614947 244.66312062 -237.46875 242.46875 C-238.124198 241.80500366 -238.779646 241.14125732 -239.45495605 240.45739746 C-243.29701504 236.59532902 -247.25677249 232.94040218 -251.38064575 229.38113403 C-255.36877913 225.9188062 -259.10942024 222.2001948 -262.875 218.5 C-264.11733398 217.31374023 -264.11733398 217.31374023 -265.38476562 216.10351562 C-273.52830747 208.07733468 -278.39445936 199.838095 -278.5 188.25 C-278.4887485 177.08600869 -275.36603336 170.05959533 -267.52734375 161.94140625 C-255.21345698 150.73761945 -232.59360514 151.13114425 -216.92636681 148.87359452 C-213.50684194 148.38005481 -210.08801134 147.88174588 -206.66906738 147.38420105 C-200.94066982 146.55134919 -195.21171931 145.72238918 -189.48242188 144.89575195 C-182.87063156 143.9417316 -176.25981026 142.98120676 -169.64945173 142.0173195 C-163.26093039 141.08595418 -156.87171908 140.1594057 -150.48219299 139.23496056 C-147.77397815 138.84303263 -145.06602094 138.44938974 -142.35826111 138.05433083 C-138.5825253 137.50448505 -134.80603825 136.96012609 -131.02929688 136.41723633 C-129.91337158 136.25363617 -128.79744629 136.09003601 -127.64770508 135.92147827 C-122.79197793 135.22883591 -118.1080734 134.59412015 -113.1875 134.8125 C-112.84380371 133.64291748 -112.84380371 133.64291748 -112.49316406 132.44970703 C-110.7721754 127.65552432 -108.55068566 123.18059357 -106.296875 118.6171875 C-105.8043222 117.61271576 -105.31176941 116.60824402 -104.80429077 115.57333374 C-103.18592467 112.27612458 -101.56184895 108.98176534 -99.9375 105.6875 C-98.80956084 103.3929883 -97.68179588 101.09839097 -96.55419922 98.80371094 C-88.29804355 82.01966801 -79.95132417 65.28152194 -71.55175781 48.56884766 C-66.37979771 38.26802712 -61.26056969 27.95186147 -56.50439453 17.45019531 C-52.03529007 7.79661173 -45.3114288 -2.01378194 -35.0625 -6.0625 C-33.77881167 -6.46396237 -32.48735968 -6.84196768 -31.1875 -7.1875 C-30.28 -7.435 -29.3725 -7.6825 -28.4375 -7.9375 C-17.5658199 -8.77378308 -8.51302439 -6.93594237 0 0 Z " fill="#FFB83D" transform="translate(278.1875,18.1875)"/>
<path d="M0 0 C8.764843 1.34734215 17.37661714 3.12866653 26.015625 5.12109375 C27.36435265 5.42929582 28.71317116 5.73710054 30.06207275 6.04454041 C32.91253661 6.69444364 35.76264722 7.34586591 38.61254883 7.99822998 C45.19679864 9.50363154 51.7862734 10.9858724 58.3754425 12.46956253 C61.37574004 13.14524581 64.37585455 13.82173977 67.37596893 14.4982357 C69.6472738 15.01038403 71.91860544 15.52241345 74.18994141 16.03442383 C77.23719123 16.72137988 80.28438899 17.40856621 83.33154297 18.09594727 C99.48865342 21.74059761 115.64782655 25.37469819 131.81820679 28.96012878 C138.24365398 30.38537029 144.66655966 31.82110352 151.0859375 33.2734375 C151.85354401 33.44708328 152.62115051 33.62072906 153.41201782 33.79963684 C154.94657925 34.14685742 156.48113533 34.49410165 158.01568604 34.84136963 C171.26573389 37.8382696 184.52565327 40.77966356 197.80841064 43.62817383 C209.56497996 46.14954056 221.31160613 48.70556259 233.02581787 51.41790771 C234.94264265 51.86171977 236.86022667 52.30224865 238.77783203 52.74267578 C239.92364746 53.01063965 241.06946289 53.27860352 242.25 53.5546875 C243.24515625 53.78655762 244.2403125 54.01842773 245.265625 54.25732422 C247.94876503 54.98608422 250.44318056 55.91346838 253 57 C251.338048 61.81588363 248.72719757 65.86053136 246 70.125 C245.48453613 70.93686768 244.96907227 71.74873535 244.43798828 72.58520508 C239.30354912 80.62110223 233.99446346 88.54018658 228.68612671 96.46160889 C223.90497987 103.59800593 219.19223022 110.76096584 214.68823242 118.07592773 C209.25618426 126.87545338 203.53350257 135.48992219 197.86962891 144.14111328 C195.02935116 148.48423843 192.20158851 152.83545786 189.375 157.1875 C188.84672607 158.00057617 188.31845215 158.81365234 187.77416992 159.65136719 C186.71364075 161.28365003 185.65317495 162.91597406 184.59277344 164.54833984 C181.89595246 168.69939383 179.19789369 172.84964316 176.5 177 C175.96503906 177.82306641 175.43007812 178.64613281 174.87890625 179.49414062 C172.14638365 183.69827479 169.41342599 187.9021251 166.6796875 192.10546875 C161.61182146 199.89850804 156.54737182 207.69366783 151.5 215.5 C144.79734425 225.86641623 138.06453354 236.21320546 131.33398438 246.56152344 C125.2750693 255.87772834 119.22130167 265.19713449 113.18774414 274.52978516 C107.47469687 283.36370359 101.73658593 292.18135664 96 301 C91.87617764 300.18944823 90.74878382 298.81043254 88.375 295.3125 C87.48941406 294.03826172 87.48941406 294.03826172 86.5859375 292.73828125 C77.72259562 277.43482642 84.54029733 255.80483456 87.44244003 239.59403706 C88.06996048 236.06961889 88.68020742 232.54221077 89.29223633 229.01507568 C90.44985996 222.35787515 91.62123286 215.7031801 92.79841709 209.04941344 C94.91056549 197.10783256 96.99724409 185.16178041 99.08127499 173.21526504 C99.81191387 169.03007149 100.54809765 164.84590225 101.28907776 160.66252756 C101.85586739 157.45816193 102.41761733 154.25291093 102.98046875 151.04785156 C103.186185 149.89564117 103.39190125 148.74343079 103.60385132 147.55630493 C103.78896271 146.49698761 103.9740741 145.43767029 104.16479492 144.34625244 C104.32703049 143.42902531 104.48926605 142.51179817 104.65641785 141.56677628 C105.43797187 136.64994936 105.43797187 136.64994936 103.80102539 132.19302368 C103.23891357 131.63899872 102.67680176 131.08497375 102.09765625 130.51416016 C101.46279297 129.87644684 100.82792969 129.23873352 100.17382812 128.58169556 C99.47708984 127.90762665 98.78035156 127.23355774 98.0625 126.5390625 C97.34900391 125.83026947 96.63550781 125.12147644 95.90039062 124.39120483 C93.61170124 122.12387214 91.30600056 119.8747097 89 117.625 C87.47677609 116.11828713 85.95462787 114.61048595 84.43359375 113.1015625 C76.38167749 105.11286049 76.38167749 105.11286049 67.98242188 97.49560547 C63.89354427 93.95631556 60.07970609 90.19029667 56.28125 86.34375 C55.57907349 85.63778687 54.87689697 84.93182373 54.15344238 84.20446777 C51.18616234 81.22102625 48.22494637 78.2315929 45.26318359 75.24267578 C43.08381535 73.04509421 40.90135053 70.85062062 38.71875 68.65625 C38.063302 67.99250366 37.407854 67.32875732 36.73254395 66.64489746 C32.89048496 62.78282902 28.93072751 59.12790218 24.80685425 55.56863403 C20.81872087 52.1063062 17.07807976 48.3876948 13.3125 44.6875 C12.48427734 43.89666016 11.65605469 43.10582031 10.80273438 42.29101562 C3.39825039 34.99324158 -2.09507662 27.02733919 -2.18554688 16.34179688 C-2.18619141 15.63087891 -2.18683594 14.91996094 -2.1875 14.1875 C-2.19974609 13.48818359 -2.21199219 12.78886719 -2.22460938 12.06835938 C-2.23699659 7.65438345 -1.62789183 4.09868416 0 0 Z " fill="#FFAA38" transform="translate(2,192)"/>
<path d="M0 0 C2.64742977 3.30928721 5.00261792 6.40038129 7.28515625 9.921875 C7.89230469 10.85580078 8.49945313 11.78972656 9.125 12.75195312 C9.764375 13.74130859 10.40375 14.73066406 11.0625 15.75 C11.73152344 16.78060547 12.40054687 17.81121094 13.08984375 18.87304688 C15.06268647 21.91356789 17.03195792 24.95637005 19 28 C19.9674267 29.4948054 20.93487215 30.98959866 21.90234375 32.484375 C23.20056005 34.49081875 24.49839004 36.49750783 25.79516602 38.50488281 C29.67928773 44.5146823 33.58870272 50.50786126 37.5 56.5 C42.32919937 63.89868192 47.14652281 71.3046952 51.94189453 78.7253418 C57.06002253 86.64418647 62.20209116 94.54744609 67.34277344 102.45166016 C70.06258969 106.63395863 72.78124278 110.81701304 75.5 115 C76.58332761 116.66667039 77.66666095 118.33333705 78.75 120 C80.91666667 123.33333333 83.08333333 126.66666667 85.25 130 C85.78641113 130.8252417 86.32282227 131.6504834 86.87548828 132.50073242 C87.9572169 134.1649428 89.03892268 135.82916803 90.12060547 137.4934082 C92.85330245 141.69777895 95.58641405 145.90187914 98.3203125 150.10546875 C103.3472124 157.83556887 108.37033604 165.56798201 113.375 173.3125 C117.73166967 180.05366115 122.11289902 186.77860945 126.5 193.5 C131.3208468 200.88592392 136.1342494 208.27637431 140.91552734 215.68798828 C143.43903707 219.59758465 145.97832452 223.49625247 148.53125 227.38671875 C149.427229 228.75534058 149.427229 228.75534058 150.34130859 230.15161133 C151.5081625 231.93319568 152.67765506 233.71305533 153.85009766 235.4909668 C154.639729 236.69813354 154.639729 236.69813354 155.4453125 237.9296875 C155.91469238 238.64366699 156.38407227 239.35764648 156.86767578 240.09326172 C158 242 158 242 159 245 C152.3432736 251.0326583 146.30668086 252.28155767 137.5625 252.4375 C136.85899414 252.45973633 136.15548828 252.48197266 135.43066406 252.50488281 C131.44770944 252.4883255 128.36976521 251.90086569 124.74267578 250.22680664 C123.95625198 249.86422256 123.16982819 249.50163849 122.35957336 249.12806702 C118.81087629 247.43150263 115.29771068 245.67564309 111.80078125 243.875 C111.05232437 243.49170029 110.30386749 243.10840057 109.5327301 242.71348572 C107.12446247 241.47859928 104.71833561 240.2396171 102.3125 239 C101.48276672 238.57349152 100.65303345 238.14698303 99.79815674 237.70755005 C89.59438805 232.46065948 79.44864379 227.13423561 69.41210938 221.57275391 C60.80310486 216.830589 52.05907248 212.35637322 43.3125 207.875 C42.5509259 207.48478668 41.78935181 207.09457336 41.00469971 206.6925354 C38.02636591 205.16674932 35.04798749 203.64105043 32.06945801 202.11564636 C26.28046098 199.14884789 20.50648134 196.15447876 14.75 193.125 C14.03755127 192.75101074 13.32510254 192.37702148 12.59106445 191.99169922 C8.33571687 189.74475826 4.18589208 187.39193833 0 185 C0 123.95 0 62.9 0 0 Z " fill="#FFAA38" transform="translate(256,249)"/>
<path d="M0 0 C0.33 0 0.66 0 1 0 C1 60.72 1 121.44 1 184 C-19.38349958 194.72815767 -19.38349958 194.72815767 -26.72558594 198.53369141 C-34.95587143 202.80107424 -43.13269157 207.14659085 -51.25 211.625 C-63.21271921 218.2139369 -75.3765475 224.40606237 -87.53163147 230.62969971 C-88.62972389 231.19198273 -88.62972389 231.19198273 -89.75 231.765625 C-90.8317173 232.31944855 -90.8317173 232.31944855 -91.93528748 232.88446045 C-98.42333226 236.20973697 -104.88245015 239.58823476 -111.32104492 243.00830078 C-123.60847539 249.52853441 -133.61978402 254.37250783 -147.78125 250.17578125 C-152.31667237 248.48833734 -155.93309928 246.90332818 -159 243 C-158.34 243 -157.68 243 -157 243 C-156.76152344 242.31421875 -156.52304688 241.6284375 -156.27734375 240.921875 C-154.74559267 237.41805295 -152.71848936 234.38776049 -150.5625 231.25 C-149.65260485 229.9056519 -148.74378941 228.56057252 -147.8359375 227.21484375 C-147.36639648 226.51987793 -146.89685547 225.82491211 -146.41308594 225.10888672 C-144.1308053 221.70281551 -141.90813806 218.25895939 -139.6875 214.8125 C-138.76176715 213.37757294 -137.83598484 211.94267779 -136.91015625 210.5078125 C-136.43723145 209.7746582 -135.96430664 209.04150391 -135.47705078 208.28613281 C-132.86797178 204.24788227 -130.24622929 200.21787019 -127.625 196.1875 C-127.08270752 195.35347656 -126.54041504 194.51945313 -125.98168945 193.66015625 C-123.76603649 190.2527679 -121.54999817 186.84563025 -119.33398438 183.43847656 C-113.71433461 174.79768724 -108.09658454 166.15575183 -102.5 157.5 C-96.9005475 148.83981253 -91.27981278 140.19352012 -85.65722656 131.54833984 C-82.93741031 127.36604137 -80.21874278 123.18299634 -77.5 119 C-74.22714758 113.96446304 -70.95403102 108.92909879 -67.6796875 103.89453125 C-62.61182146 96.10149196 -57.54737182 88.30633217 -52.5 80.5 C-46.9005475 71.83981253 -41.27981278 63.19352012 -35.65722656 54.54833984 C-33.47740404 51.19639708 -31.29833561 47.84396452 -29.11938477 44.49145508 C-28.04186241 42.8336659 -26.96422613 41.17595076 -25.88647461 39.51831055 C-23.11354519 35.25319928 -20.3424116 30.98693722 -17.57421875 26.71875 C-14.38887319 21.80854073 -11.19768701 16.90218097 -8 12 C-7.56187988 11.32775391 -7.12375977 10.65550781 -6.67236328 9.96289062 C-5.53572647 8.22254232 -4.39312988 6.4860903 -3.25 4.75 C-2.32960937 3.35007813 -2.32960937 3.35007813 -1.390625 1.921875 C-0.93171875 1.28765625 -0.4728125 0.6534375 0 0 Z " fill="#FAF07F" transform="translate(255,250)"/>
<path d="M0 0 C0.99 0.495 0.99 0.495 2 1 C-5.58419362 13.07283581 -13.31021856 25.0340656 -21.25 36.875 C-26.38758696 44.53884127 -31.47410131 52.21925352 -36.31225586 60.07666016 C-41.74402435 68.87600967 -47.46666084 77.49017177 -53.13037109 86.14111328 C-55.97064884 90.48423843 -58.79841149 94.83545786 -61.625 99.1875 C-62.41741089 100.40711426 -62.41741089 100.40711426 -63.22583008 101.65136719 C-64.28635925 103.28365003 -65.34682505 104.91597406 -66.40722656 106.54833984 C-69.10404754 110.69939383 -71.80210631 114.84964316 -74.5 119 C-75.03496094 119.82306641 -75.56992188 120.64613281 -76.12109375 121.49414062 C-78.85361635 125.69827479 -81.58657401 129.9021251 -84.3203125 134.10546875 C-89.38817854 141.89850804 -94.45262818 149.69366783 -99.5 157.5 C-106.20265575 167.86641623 -112.93546646 178.21320546 -119.66601562 188.56152344 C-125.7249307 197.87772834 -131.77869833 207.19713449 -137.81225586 216.52978516 C-143.52530313 225.36370359 -149.26341407 234.18135664 -155 243 C-159.12382236 242.18944823 -160.25121618 240.81043254 -162.625 237.3125 C-163.51058594 236.03826172 -163.51058594 236.03826172 -164.4140625 234.73828125 C-173.26961626 219.4482734 -166.47288825 197.79869948 -163.59049153 181.59403706 C-162.96672313 178.06950359 -162.3593821 174.54213786 -161.75010681 171.01507568 C-160.59759525 164.35781557 -159.43056013 157.70319023 -158.25812477 151.04941344 C-156.92576816 143.48354557 -155.61064861 135.91471217 -154.2965585 128.34565401 C-152.25293839 116.57781182 -150.20032804 104.81156293 -148.13305664 93.04785156 C-147.93093567 91.89564117 -147.7288147 90.74343079 -147.52056885 89.55630493 C-147.33408279 88.49698761 -147.14759674 87.43767029 -146.95545959 86.34625244 C-146.79414582 85.42902531 -146.63283205 84.51179817 -146.46662998 83.56677628 C-146.31264209 82.7197401 -146.15865419 81.87270393 -146 81 C-145.88048697 80.10848614 -145.76097395 79.21697227 -145.63783932 78.29844284 C-145 76 -145 76 -141.83911133 73.87866211 C-140.42919013 73.16007016 -139.00926754 72.46089972 -137.58203125 71.77734375 C-136.82225479 71.39545898 -136.06247833 71.01357422 -135.27967834 70.62011719 C-132.79824801 69.37657393 -130.3055646 68.15752488 -127.8125 66.9375 C-125.23368643 65.6506606 -122.65815633 64.3574061 -120.08270264 63.06385803 C-118.38162028 62.21003593 -116.67951307 61.35825258 -114.97637939 60.50852966 C-108.86333691 57.45544085 -102.84098581 54.26962065 -96.875 50.9375 C-87.52301318 45.74750356 -78.02193413 40.86812951 -68.5 36 C-58.81255223 31.04697502 -49.15016984 26.07349497 -39.625 20.8125 C-31.54611432 16.35869462 -23.41978783 12.00256993 -15.24334717 7.73080444 C-13.92158514 7.03900312 -12.60129096 6.34438957 -11.28253174 5.6468811 C-9.44755962 4.67727611 -7.60748103 3.71816725 -5.765625 2.76171875 C-4.70118164 2.20444092 -3.63673828 1.64716309 -2.54003906 1.07299805 C-1.70182617 0.71890869 -0.86361328 0.36481934 0 0 Z " fill="#FEC943" transform="translate(253,250)"/>
<path d="M0 0 C0 78.54 0 157.08 0 238 C-7.86722606 231.25666338 -7.86722606 231.25666338 -10.39453125 228.484375 C-10.95261475 227.87795166 -11.51069824 227.27152832 -12.08569336 226.64672852 C-12.65553955 226.02080811 -13.22538574 225.3948877 -13.8125 224.75 C-17.94107427 220.26533414 -22.09719962 215.84307148 -26.4375 211.5625 C-29.20322485 208.83263544 -31.85372299 206.08160541 -34.375 203.125 C-37.41430767 199.56713747 -40.67364346 196.28558612 -44 193 C-47.2638325 189.77602502 -50.46830186 186.564821 -53.4375 183.0625 C-56.60010003 179.34042282 -60.02970978 175.93134196 -63.5 172.5 C-67.50426277 168.54057779 -71.35199669 164.55870345 -74.96484375 160.234375 C-76.76848559 158.25417705 -78.62568818 156.42168261 -80.56640625 154.578125 C-81.21101807 153.95929443 -81.85562988 153.34046387 -82.51977539 152.70288086 C-83.82297346 151.45880952 -85.13837774 150.22737984 -86.46655273 149.01000977 C-87.06540283 148.43565186 -87.66425293 147.86129395 -88.28125 147.26953125 C-88.82845703 146.76010986 -89.37566406 146.25068848 -89.93945312 145.72583008 C-91 144 -91 144 -90.70072937 141.68804932 C-89.99895561 138.99599365 -89.07768066 136.75767713 -87.84887695 134.26538086 C-87.1734787 132.88489311 -87.1734787 132.88489311 -86.48443604 131.47651672 C-85.74383942 129.9857386 -85.74383942 129.9857386 -84.98828125 128.46484375 C-84.47207214 127.41447433 -83.95586304 126.36410492 -83.42401123 125.28190613 C-81.72594599 121.83089287 -80.01934885 118.38417627 -78.3125 114.9375 C-77.42950986 113.14643173 -76.54652275 111.35536188 -75.66413784 109.56399536 C-66.95748739 91.88942682 -58.16168387 74.25926177 -49.3137207 56.6550293 C-44.15835951 46.38791669 -39.05739794 36.10460547 -34.31665039 25.63720703 C-29.84769602 15.98378859 -23.12367634 6.17361832 -12.875 2.125 C-8.6154843 0.76095077 -4.4802906 0 0 0 Z " fill="#FFAA38" transform="translate(256,10)"/>
<path d="M0 0 C13.38800032 2.23133339 19.48643173 4.12810592 28 14 C30.11633769 17.18338723 31.81544646 20.50946255 33.5 23.9375 C34.00442627 24.93289795 34.50885254 25.9282959 35.02856445 26.95385742 C39.85386802 36.53958284 44.49721177 46.21838929 49.14892578 55.8894043 C56.60362685 71.36424458 64.3252486 86.70548583 72.04370117 102.05004883 C74.55497726 107.0456709 77.05022587 112.04902517 79.53503418 117.05786133 C80.5280292 119.05212565 81.52700396 121.04342164 82.53137207 123.03198242 C83.99680277 125.93601779 85.44184915 128.84938889 86.8828125 131.765625 C87.32986542 132.64031433 87.77691833 133.51500366 88.23751831 134.41619873 C88.63238434 135.22534729 89.02725037 136.03449585 89.43408203 136.86816406 C89.78632843 137.57265686 90.13857483 138.27714966 90.50149536 139.00299072 C91 141 91 141 90.17941284 143.15081787 C85.97360011 149.74504294 79.93922106 155.10780362 74.40478516 160.57617188 C71.65801486 163.30146289 69.00798605 166.04942818 66.5 169 C63.02389423 173.0895362 59.21750344 176.8096054 55.40234375 180.578125 C52.65674514 183.30308001 50.00730048 186.05023473 47.5 189 C44.5073396 192.52077694 41.2846735 195.7554753 38 199 C34.73617385 202.22398087 31.53169859 205.43517847 28.5625 208.9375 C24.87901935 213.27260376 20.82015524 217.20908075 16.77563477 221.20263672 C13.1851827 224.76442354 9.77118687 228.4014595 6.5625 232.31640625 C4.59393859 234.43753116 2.25972221 236.19222223 0 238 C0 159.46 0 80.92 0 0 Z " fill="#FAF07F" transform="translate(256,10)"/>
<path d="M0 0 C0.80381104 0.82886719 1.60762207 1.65773437 2.43579102 2.51171875 C3.78060547 3.87876953 3.78060547 3.87876953 5.15258789 5.2734375 C6.08180804 6.2485229 7.0108435 7.22378434 7.93969727 8.19921875 C8.85557617 9.13378906 9.77145508 10.06835938 10.71508789 11.03125 C15.26257706 15.69952675 19.65538861 20.46211799 23.90869141 25.3984375 C26.47536591 28.29897238 29.23316403 30.99365906 32.00219727 33.69921875 C36.05923923 37.70577003 39.94218926 41.75811205 43.63110352 46.109375 C46.14603177 48.91832409 48.82055049 51.55030492 51.50219727 54.19921875 C54.76602024 57.42320256 57.97049845 60.63439696 60.93969727 64.13671875 C64.62361472 68.47233659 68.6841886 72.40746532 72.7265625 76.40405273 C76.33745974 79.98979058 79.77230185 83.66303262 83.06860352 87.54296875 C85.09826285 89.88786128 87.27655678 92.04102192 89.50219727 94.19921875 C86.33743801 94.19921875 83.77735526 93.65833313 80.69360352 92.94921875 C79.49058594 92.674729 78.28756836 92.40023926 77.0480957 92.11743164 C76.07833801 91.89387497 76.07833801 91.89387497 75.08898926 91.665802 C71.57846726 90.85665452 68.06552575 90.05811343 64.55297852 89.2578125 C63.81373138 89.08906113 63.07448425 88.92030975 62.31283569 88.7464447 C54.88214749 87.05227342 47.44149062 85.40407149 39.99984741 83.75881958 C27.40634011 80.97358054 14.82355847 78.14525875 2.25219727 75.26171875 C-11.17621578 72.18213154 -24.61229784 69.1386898 -38.05444336 66.11962891 C-39.78556578 65.73080599 -41.51668547 65.34197087 -43.24780273 64.953125 C-44.15727661 64.74884888 -45.06675049 64.54457275 -46.00378418 64.33410645 C-54.09652069 62.51566184 -62.18793417 60.69137383 -70.27914238 58.86614418 C-72.57183124 58.34896191 -74.86453411 57.83184173 -77.15724182 57.31474304 C-77.92367728 57.14188058 -78.69011274 56.96901812 -79.47977352 56.7909174 C-81.04230679 56.43850549 -82.60484049 56.08609551 -84.16737461 55.7336874 C-88.09272047 54.84836869 -92.01804596 53.96295988 -95.94332886 53.07736206 C-117.46538475 48.21969181 -117.46538475 48.21969181 -139.00170898 43.42578125 C-139.88065826 43.23148026 -140.75960754 43.03717926 -141.66519165 42.83699036 C-145.48639746 41.99306482 -149.30831836 41.15262308 -153.1315918 40.31811523 C-154.38294922 40.04298096 -155.63430664 39.76784668 -156.92358398 39.484375 C-157.9694165 39.2562915 -159.01524902 39.02820801 -160.09277344 38.79321289 C-162.49780273 38.19921875 -162.49780273 38.19921875 -164.49780273 37.19921875 C-162.68602391 30.75733847 -157.72311901 26.02892324 -152.68530273 21.88671875 C-144.52934665 17.56885964 -135.46808999 16.39282129 -126.43237305 15.11450195 C-125.16283279 14.92874603 -123.89329254 14.74299011 -122.58528137 14.55160522 C-119.13408035 14.04692144 -115.68159195 13.55164085 -112.22874165 13.05838418 C-108.60202972 12.5388685 -104.97648317 12.01133468 -101.35076904 11.48490906 C-95.26917602 10.60313401 -89.1867543 9.72727575 -83.10375977 8.85522461 C-76.08055266 7.84833415 -69.058591 6.83310449 -62.03726315 5.81319743 C-55.26327234 4.8293238 -48.48858834 3.85031252 -41.71352386 2.87386131 C-38.83787718 2.45938721 -35.96245385 2.04341058 -33.08719635 1.6262455 C-29.07406639 1.04434465 -25.05993543 0.46965754 -21.0456543 -0.10424805 C-19.85798965 -0.27719894 -18.67032501 -0.45014984 -17.44667053 -0.62834167 C-16.35061996 -0.78387512 -15.2545694 -0.93940857 -14.12530518 -1.09965515 C-12.70402502 -1.30397927 -12.70402502 -1.30397927 -11.25403214 -1.51243114 C-3.25813845 -2.34894235 -3.25813845 -2.34894235 0 0 Z " fill="#FEC842" transform="translate(167.497802734375,154.80078125)"/>
<path d="M0 0 C1.1492351 0.12385732 2.29847019 0.24771463 3.48253059 0.3753252 C4.74001987 0.5035737 5.99750916 0.6318222 7.29310417 0.76395702 C8.54736324 0.91832037 9.80162231 1.07268372 11.09388924 1.23172474 C12.15860577 1.35844877 13.2233223 1.48517281 14.32030296 1.61573696 C17.51091666 2.02199773 20.69269842 2.47160124 23.87562752 2.93411732 C25.06783913 3.10340244 26.26005074 3.27268757 27.48838997 3.44710255 C30.71198204 3.90619535 33.93488854 4.36973476 37.15743303 4.83611608 C39.17996017 5.12853435 41.20268298 5.41955952 43.22547722 5.71012402 C50.30753563 6.72750789 57.38880115 7.75022126 64.46937752 8.77786732 C71.03114032 9.73006478 77.59455631 10.67019595 84.15884411 11.60481244 C89.83176132 12.41308407 95.50339145 13.23000045 101.17412555 14.0534479 C104.54495051 14.54277208 107.91617068 15.0287312 111.28874779 15.50584316 C115.05109327 16.04039911 118.81112945 16.58908217 122.57094002 17.14114857 C123.66529366 17.29350971 124.75964729 17.44587086 125.88716316 17.60284901 C135.35284992 19.01874541 145.59223212 20.77240806 152.65638924 27.66922474 C153.4414283 28.41043568 154.22646736 29.15164661 155.03529549 29.91531849 C160.09388924 35.60743631 160.09388924 35.60743631 160.09388924 39.23172474 C143.42779912 43.40538347 126.71233501 47.22999284 109.90638924 50.79422474 C97.57805476 53.40973503 85.26515156 56.0573344 72.99305916 58.92776966 C63.24666485 61.20649974 53.48448105 63.41201456 43.71888924 65.60672474 C42.86377754 65.79894611 42.00866585 65.99116749 41.12764168 66.18921375 C20.7956648 70.75792068 0.45233768 75.27553955 -19.89430046 79.77844715 C-23.77340782 80.63710386 -27.65231864 81.49664519 -31.53111076 82.35672474 C-32.28277519 82.52337635 -33.03443962 82.69002796 -33.80888176 82.86172962 C-43.64368693 85.04380787 -53.46764037 87.26772992 -63.28111076 89.54422474 C-66.28216018 90.23829954 -69.28329383 90.93200716 -72.28452873 91.62527943 C-73.95837098 92.012486 -75.63190641 92.40102289 -77.30503654 92.79129505 C-79.31609026 93.25844188 -81.32973182 93.71441179 -83.34361076 94.16922474 C-84.88855217 94.5230724 -84.88855217 94.5230724 -86.46470451 94.88406849 C-88.90611076 95.23172474 -88.90611076 95.23172474 -91.90611076 94.23172474 C-91.3376342 93.67484974 -90.76915764 93.11797474 -90.18345451 92.54422474 C-86.55066971 88.95389318 -82.96154053 85.37830189 -79.65611076 81.48172474 C-76.4227211 77.70440036 -72.93910297 74.22490298 -69.40611076 70.73172474 C-65.35145178 66.72260454 -61.46632917 62.67307962 -57.77720451 58.32156849 C-54.76460385 54.95676399 -51.52039034 51.82627286 -48.30821037 48.6533556 C-45.5626925 45.92848395 -42.913336 43.18140149 -40.40611076 40.23172474 C-36.930005 36.14218854 -33.12361421 32.42211934 -29.30845451 28.65359974 C-25.98090095 25.35106538 -22.86242403 21.94757898 -19.82798576 18.37234974 C-16.72632781 14.91765755 -13.40096496 11.6854981 -10.07993889 8.44266224 C-7.05698847 5.49117134 -7.05698847 5.49117134 -4.63840866 2.05185127 C-2.90611076 0.23172474 -2.90611076 0.23172474 0 0 Z " fill="#FEC943" transform="translate(348.9061107635498,152.7682752609253)"/>
</svg>
